HIERARCHY
ROOT mixamorig:Hips
{
	OFFSET -0.000008 104.274872 1.554316
	CHANNELS 6 Xposition Yposition Zposition Xrotation Yrotation Zrotation
	JOINT mixamorig:Spine
	{
		OFFSET -0.000005 10.181595 0.131519
		CHANNELS 6 Xposition Yposition Zposition Xrotation Yrotation Zrotation
		JOINT mixamorig:Spine1
		{
			OFFSET -0.000000 9.893959 -1.470707
			CHANNELS 6 Xposition Yposition Zposition Xrotation Yrotation Zrotation
			JOINT mixamorig:Spine2
			{
				OFFSET -0.000000 9.220757 -1.370641
				CHANNELS 6 Xposition Yposition Zposition Xrotation Yrotation Zrotation
				JOINT mixamorig:Neck
				{
					OFFSET 0.000001 16.740417 -2.049036
					CHANNELS 6 Xposition Yposition Zposition Xrotation Yrotation Zrotation
					JOINT mixamorig:Head
					{
						OFFSET 0.000000 9.617874 1.685006
						CHANNELS 6 Xposition Yposition Zposition Xrotation Yrotation Zrotation
						JOINT mixamorig:HeadTop_End
						{
							OFFSET 0.000002 22.037354 7.501101
							CHANNELS 6 Xposition Yposition Zposition Xrotation Yrotation Zrotation
							End Site
							{
								OFFSET 0.000168 2310.654297 -282.823242
							}
						}
					}
				}
				JOINT mixamorig:RightShoulder
				{
					OFFSET -4.569970 11.014908 -2.160885
					CHANNELS 6 Xposition Yposition Zposition Xrotation Yrotation Zrotation
					JOINT mixamorig:RightArm
					{
						OFFSET -10.592851 -0.524811 -2.232101
						CHANNELS 6 Xposition Yposition Zposition Xrotation Yrotation Zrotation
						JOINT mixamorig:RightForeArm
						{
							OFFSET -27.841511 0.000031 -0.000004
							CHANNELS 6 Xposition Yposition Zposition Xrotation Yrotation Zrotation
							JOINT mixamorig:RightHand
							{
								OFFSET -28.328831 -0.000015 0.000015
								CHANNELS 6 Xposition Yposition Zposition Xrotation Yrotation Zrotation
								JOINT mixamorig:RightHandThumb1
								{
									OFFSET -2.464806 -1.573990 2.681852
									CHANNELS 6 Xposition Yposition Zposition Xrotation Yrotation Zrotation
									JOINT mixamorig:RightHandThumb2
									{
										OFFSET -3.215179 -1.872803 1.924282
										CHANNELS 6 Xposition Yposition Zposition Xrotation Yrotation Zrotation
										JOINT mixamorig:RightHandThumb3
										{
											OFFSET -2.654831 -1.527969 1.512609
											CHANNELS 6 Xposition Yposition Zposition Xrotation Yrotation Zrotation
											JOINT mixamorig:RightHandThumb4
											{
												OFFSET -2.018814 -1.152008 1.108052
												CHANNELS 6 Xposition Yposition Zposition Xrotation Yrotation Zrotation
												End Site
												{
													OFFSET -188.809540 -114.533607 132.431396
												}
											}
										}
									}
								}
								JOINT mixamorig:RightHandIndex1
								{
									OFFSET -9.108284 -0.517868 2.259835
									CHANNELS 6 Xposition Yposition Zposition Xrotation Yrotation Zrotation
									JOINT mixamorig:RightHandIndex2
									{
										OFFSET -3.699989 0.000000 0.001215
										CHANNELS 6 Xposition Yposition Zposition Xrotation Yrotation Zrotation
										JOINT mixamorig:RightHandIndex3
										{
											OFFSET -2.850006 0.000031 -0.000522
											CHANNELS 6 Xposition Yposition Zposition Xrotation Yrotation Zrotation
											JOINT mixamorig:RightHandIndex4
											{
												OFFSET -2.772186 -0.000015 -0.000020
												CHANNELS 6 Xposition Yposition Zposition Xrotation Yrotation Zrotation
												End Site
												{
													OFFSET -277.218445 0.000000 -0.050231
												}
											}
										}
									}
								}
								JOINT mixamorig:RightHandMiddle1
								{
									OFFSET -9.532516 -0.000031 -0.000023
									CHANNELS 6 Xposition Yposition Zposition Xrotation Yrotation Zrotation
									JOINT mixamorig:RightHandMiddle2
									{
										OFFSET -3.700005 -0.000015 0.003713
										CHANNELS 6 Xposition Yposition Zposition Xrotation Yrotation Zrotation
										JOINT mixamorig:RightHandMiddle3
										{
											OFFSET -2.949974 0.000015 -0.002054
											CHANNELS 6 Xposition Yposition Zposition Xrotation Yrotation Zrotation
											JOINT mixamorig:RightHandMiddle4
											{
												OFFSET -2.946640 0.000000 -0.000156
												CHANNELS 6 Xposition Yposition Zposition Xrotation Yrotation Zrotation
												End Site
												{
													OFFSET -294.664337 0.000000 -0.113670
												}
											}
										}
									}
								}
								JOINT mixamorig:RightHandRing1
								{
									OFFSET -9.103600 -0.043076 -1.865134
									CHANNELS 6 Xposition Yposition Zposition Xrotation Yrotation Zrotation
									JOINT mixamorig:RightHandRing2
									{
										OFFSET -3.379288 0.000000 -0.001055
										CHANNELS 6 Xposition Yposition Zposition Xrotation Yrotation Zrotation
										JOINT mixamorig:RightHandRing3
										{
											OFFSET -2.889687 -0.000015 0.000379
											CHANNELS 6 Xposition Yposition Zposition Xrotation Yrotation Zrotation
											JOINT mixamorig:RightHandRing4
											{
												OFFSET -2.638809 -0.000015 0.000941
												CHANNELS 6 Xposition Yposition Zposition Xrotation Yrotation Zrotation
												End Site
												{
													OFFSET -263.880371 0.000000 0.516020
												}
											}
										}
									}
								}
								JOINT mixamorig:RightHandPinky1
								{
									OFFSET -8.076683 -0.486710 -3.806280
									CHANNELS 6 Xposition Yposition Zposition Xrotation Yrotation Zrotation
									JOINT mixamorig:RightHandPinky2
									{
										OFFSET -3.600014 -0.000015 -0.003747
										CHANNELS 6 Xposition Yposition Zposition Xrotation Yrotation Zrotation
										JOINT mixamorig:RightHandPinky3
										{
											OFFSET -2.099983 0.000000 -0.005739
											CHANNELS 6 Xposition Yposition Zposition Xrotation Yrotation Zrotation
											JOINT mixamorig:RightHandPinky4
											{
												OFFSET -2.115768 -0.000031 -0.003680
												CHANNELS 6 Xposition Yposition Zposition Xrotation Yrotation Zrotation
												End Site
												{
													OFFSET -211.577087 0.000000 -0.350686
												}
											}
										}
									}
								}
							}
						}
					}
				}
				JOINT mixamorig:LeftShoulder
				{
					OFFSET 4.570447 11.014725 -2.160855
					CHANNELS 6 Xposition Yposition Zposition Xrotation Yrotation Zrotation
					JOINT mixamorig:LeftArm
					{
						OFFSET 10.592371 -0.524597 -2.232119
						CHANNELS 6 Xposition Yposition Zposition Xrotation Yrotation Zrotation
						JOINT mixamorig:LeftForeArm
						{
							OFFSET 27.841532 -0.000031 0.000026
							CHANNELS 6 Xposition Yposition Zposition Xrotation Yrotation Zrotation
							JOINT mixamorig:LeftHand
							{
								OFFSET 28.328846 -0.000061 0.000022
								CHANNELS 6 Xposition Yposition Zposition Xrotation Yrotation Zrotation
								JOINT mixamorig:LeftHandThumb1
								{
									OFFSET 2.466141 -1.576172 2.681732
									CHANNELS 6 Xposition Yposition Zposition Xrotation Yrotation Zrotation
									JOINT mixamorig:LeftHandThumb2
									{
										OFFSET 3.217812 -1.872070 1.916482
										CHANNELS 6 Xposition Yposition Zposition Xrotation Yrotation Zrotation
										JOINT mixamorig:LeftHandThumb3
										{
											OFFSET 2.656029 -1.528778 1.514513
											CHANNELS 6 Xposition Yposition Zposition Xrotation Yrotation Zrotation
											JOINT mixamorig:LeftHandThumb4
											{
												OFFSET 2.020889 -1.154053 1.115139
												CHANNELS 6 Xposition Yposition Zposition Xrotation Yrotation Zrotation
												End Site
												{
													OFFSET 190.885437 -115.081749 130.048782
												}
											}
										}
									}
								}
								JOINT mixamorig:LeftHandIndex1
								{
									OFFSET 9.109314 -0.518021 2.259871
									CHANNELS 6 Xposition Yposition Zposition Xrotation Yrotation Zrotation
									JOINT mixamorig:LeftHandIndex2
									{
										OFFSET 3.699989 0.000000 -0.000322
										CHANNELS 6 Xposition Yposition Zposition Xrotation Yrotation Zrotation
										JOINT mixamorig:LeftHandIndex3
										{
											OFFSET 2.850006 0.000000 0.000352
											CHANNELS 6 Xposition Yposition Zposition Xrotation Yrotation Zrotation
											JOINT mixamorig:LeftHandIndex4
											{
												OFFSET 2.774864 -0.000031 -0.000027
												CHANNELS 6 Xposition Yposition Zposition Xrotation Yrotation Zrotation
												End Site
												{
													OFFSET 277.486267 0.000000 -0.009857
												}
											}
										}
									}
								}
								JOINT mixamorig:LeftHandMiddle1
								{
									OFFSET 9.533394 0.000061 0.000044
									CHANNELS 6 Xposition Yposition Zposition Xrotation Yrotation Zrotation
									JOINT mixamorig:LeftHandMiddle2
									{
										OFFSET 3.699989 -0.000015 -0.000231
										CHANNELS 6 Xposition Yposition Zposition Xrotation Yrotation Zrotation
										JOINT mixamorig:LeftHandMiddle3
										{
											OFFSET 2.949997 -0.000015 -0.000059
											CHANNELS 6 Xposition Yposition Zposition Xrotation Yrotation Zrotation
											JOINT mixamorig:LeftHandMiddle4
											{
												OFFSET 2.952896 0.000031 0.000063
												CHANNELS 6 Xposition Yposition Zposition Xrotation Yrotation Zrotation
												End Site
												{
													OFFSET 295.289337 0.000000 0.022810
												}
											}
										}
									}
								}
								JOINT mixamorig:LeftHandRing1
								{
									OFFSET 9.104523 -0.042999 -1.865074
									CHANNELS 6 Xposition Yposition Zposition Xrotation Yrotation Zrotation
									JOINT mixamorig:LeftHandRing2
									{
										OFFSET 3.150009 -0.000031 0.000043
										CHANNELS 6 Xposition Yposition Zposition Xrotation Yrotation Zrotation
										JOINT mixamorig:LeftHandRing3
										{
											OFFSET 2.949982 -0.000015 0.000040
											CHANNELS 6 Xposition Yposition Zposition Xrotation Yrotation Zrotation
											JOINT mixamorig:LeftHandRing4
											{
												OFFSET 2.644348 0.000000 0.000057
												CHANNELS 6 Xposition Yposition Zposition Xrotation Yrotation Zrotation
												End Site
												{
													OFFSET 264.434631 0.000000 0.012105
												}
											}
										}
									}
								}
								JOINT mixamorig:LeftHandPinky1
								{
									OFFSET 8.077789 -0.486847 -3.806259
									CHANNELS 6 Xposition Yposition Zposition Xrotation Yrotation Zrotation
									JOINT mixamorig:LeftHandPinky2
									{
										OFFSET 3.599953 0.000031 0.014727
										CHANNELS 6 Xposition Yposition Zposition Xrotation Yrotation Zrotation
										JOINT mixamorig:LeftHandPinky3
										{
											OFFSET 2.100021 0.000015 0.007705
											CHANNELS 6 Xposition Yposition Zposition Xrotation Yrotation Zrotation
											JOINT mixamorig:LeftHandPinky4
											{
												OFFSET 2.125504 0.000031 0.007517
												CHANNELS 6 Xposition Yposition Zposition Xrotation Yrotation Zrotation
												End Site
												{
													OFFSET 212.550781 0.000000 0.625752
												}
											}
										}
									}
								}
							}
						}
					}
				}
			}
		}
	}
	JOINT mixamorig:RightUpLeg
	{
		OFFSET -8.207787 -6.751648 -1.599560
		CHANNELS 6 Xposition Yposition Zposition Xrotation Yrotation Zrotation
		JOINT mixamorig:RightLeg
		{
			OFFSET -0.000002 -44.370117 0.345942
			CHANNELS 6 Xposition Yposition Zposition Xrotation Yrotation Zrotation
			JOINT mixamorig:RightFoot
			{
				OFFSET 0.000003 -44.423679 -3.043532
				CHANNELS 6 Xposition Yposition Zposition Xrotation Yrotation Zrotation
				JOINT mixamorig:RightToeBase
				{
					OFFSET -0.000002 -8.728671 10.710558
					CHANNELS 6 Xposition Yposition Zposition Xrotation Yrotation Zrotation
					JOINT mixamorig:RightToe_End
					{
						OFFSET -0.000001 -0.000679 9.278119
						CHANNELS 6 Xposition Yposition Zposition Xrotation Yrotation Zrotation
						End Site
						{
							OFFSET 0.000000 -0.067690 927.812134
						}
					}
				}
			}
		}
	}
	JOINT mixamorig:LeftUpLeg
	{
		OFFSET 8.207793 -6.751686 -1.599556
		CHANNELS 6 Xposition Yposition Zposition Xrotation Yrotation Zrotation
		JOINT mixamorig:LeftLeg
		{
			OFFSET -0.000004 -44.370014 0.346954
			CHANNELS 6 Xposition Yposition Zposition Xrotation Yrotation Zrotation
			JOINT mixamorig:LeftFoot
			{
				OFFSET -0.000001 -44.423672 -3.044401
				CHANNELS 6 Xposition Yposition Zposition Xrotation Yrotation Zrotation
				JOINT mixamorig:LeftToeBase
				{
					OFFSET -0.000002 -8.728669 10.710558
					CHANNELS 6 Xposition Yposition Zposition Xrotation Yrotation Zrotation
					JOINT mixamorig:LeftToe_End
					{
						OFFSET -0.000003 -0.000679 9.278133
						CHANNELS 6 Xposition Yposition Zposition Xrotation Yrotation Zrotation
						End Site
						{
							OFFSET 0.000000 -0.068021 927.813477
						}
					}
				}
			}
		}
	}
}
MOTION
Frames: 3
Frame Time: 0.033333
0.000006 104.270477 1.554256 0.000010 0.000003 -0.000113 -0.000005 10.181587 0.131522 0.000001 -0.000003 0.000084 -0.000000 9.893967 -1.470711 0.000001 0.000000 -0.000000 -0.000000 9.220802 -1.370642 0.000000 -0.000000 -0.000000 0.000001 16.740433 -2.049030 0.000000 -0.000000 -0.000000 0.000000 9.617859 1.685014 0.000000 0.000000 0.000000 0.000002 22.037384 7.501101 0.000000 -0.000000 0.000000 -4.569968 11.014880 -2.160881 0.000008 0.000001 -0.000038 -10.592874 -0.524764 -2.231910 75.326031 27.917172 -21.720833 -27.841516 0.000008 0.000554 -55.699687 108.584613 72.637061 -28.328835 0.000006 0.000020 -0.000320 -0.000044 0.000009 -2.464444 -1.573931 2.682389 -28.385923 -154.186521 30.429961 -3.215272 -1.872556 1.924644 153.205692 33.467442 17.076207 -2.654967 -1.527898 1.513080 151.359178 26.494753 -33.738966 -2.018827 -1.151979 1.108068 -0.000002 -0.000002 0.000005 -9.108392 -0.517574 2.260144 102.657648 18.737712 -23.356296 -3.700084 0.000319 0.001532 99.620809 15.981362 -18.840978 -2.850071 0.000351 -0.000227 100.109994 12.987003 -15.478279 -2.772147 -0.000000 -0.000021 -0.000001 0.000000 -0.000000 -9.532589 0.000261 0.000265 96.456587 17.215166 -19.397305 -3.700082 0.000328 0.003990 96.472652 13.118189 -14.567410 -2.950071 0.000328 -0.001775 97.719141 11.806358 -13.491708 -2.946624 0.000002 -0.000155 -0.000001 0.000000 -0.000000 -9.103693 -0.042770 -1.864849 97.588042 18.049128 -20.510489 -3.379311 0.000326 -0.000790 97.679778 8.257972 -9.460725 -2.889757 0.000364 0.000658 100.654353 5.103871 -6.205258 -2.638816 -0.000015 0.000942 0.000000 -0.000001 -0.000003 -8.076754 -0.486399 -3.805992 94.147806 17.880771 -19.037761 -3.600043 0.000301 -0.003482 97.042365 5.956738 -6.348141 -2.099998 0.000330 -0.005457 97.859692 3.139819 -3.360222 -2.115774 -0.000029 -0.003681 -0.000001 -0.000002 -0.000004 4.570446 11.014691 -2.160851 -0.000018 0.000010 -0.000021 10.592399 -0.524475 -2.232366 73.893542 -11.930589 8.987171 27.841820 0.000071 -0.000182 101.798321 -72.916572 84.548665 28.328823 -0.000029 0.000017 0.000020 -0.000089 0.000000 2.465890 -1.576091 2.681888 -52.029130 172.912809 23.171757 3.217799 -1.871735 1.916365 155.959283 -30.694795 2.419779 2.656103 -1.528632 1.514463 141.220964 -27.529533 45.192872 2.020894 -1.154088 1.115142 0.000001 0.000001 0.000004 9.109391 -0.517851 2.259746 85.183039 -16.467538 15.142827 3.700054 0.000130 -0.000461 81.273883 -18.596208 16.012028 2.850053 0.000158 0.000199 79.061796 -14.874088 12.295603 2.774876 -0.000028 -0.000028 0.000001 0.000002 0.000001 9.533476 0.000204 -0.000095 85.600288 -14.706476 13.620936 3.700049 0.000167 -0.000375 86.931772 -15.782906 14.966507 2.950072 0.000161 -0.000185 84.918649 -18.864373 17.289562 2.952868 -0.000015 0.000063 0.000003 -0.000000 -0.000001 9.104595 -0.042843 -1.865206 86.169783 -14.099319 13.197057 3.150052 0.000196 -0.000091 88.988028 -13.687726 13.452113 2.950026 0.000172 -0.000073 87.949566 -15.284787 14.755152 2.644323 0.000014 0.000056 -0.000001 -0.000001 0.000001 8.077854 -0.486723 -3.806406 77.089470 -16.792403 13.887933 3.600013 0.000160 0.014562 76.517783 -13.402245 10.992897 2.100041 0.000172 0.007538 77.826447 -12.286064 10.324671 2.125501 0.000000 0.007514 0.000000 0.000001 0.000001 -8.207786 -6.751667 -1.599560 -0.077001 -0.000003 0.000080 -0.000002 -44.370110 0.345938 0.153719 -0.000000 -0.000000 0.000000 -44.423679 -3.043532 -0.076700 0.000000 -0.000002 -0.000006 -8.728667 10.710559 -0.000009 -0.000000 -0.000000 -0.000001 -0.000679 9.278123 0.000000 -0.000000 -0.000000 8.207792 -6.751710 -1.599556 -0.074518 -0.000003 0.000081 -0.000002 -44.370014 0.346960 0.148822 0.000002 0.000000 -0.000001 -44.423664 -3.044403 -0.074314 0.000000 -0.000002 -0.000004 -8.728671 10.710558 0.000007 -0.000000 -0.000000 0.000000 -0.000680 9.278137 -0.000000 0.000000 -0.000001 
0.000006 104.270477 1.554256 0.000010 0.000003 -0.000113 -0.000005 10.181587 0.131522 0.000001 -0.000003 0.000084 -0.000000 9.893967 -1.470711 0.000001 0.000000 -0.000000 -0.000000 9.220802 -1.370642 0.000000 -0.000000 -0.000000 0.000001 16.740433 -2.049030 0.000000 -0.000000 -0.000000 0.000000 9.617859 1.685014 0.000000 0.000000 0.000000 0.000002 22.037384 7.501101 0.000000 -0.000000 0.000000 -4.569968 11.014880 -2.160881 0.000008 0.000001 -0.000038 -10.592869 -0.524796 -2.231875 75.885806 36.449649 -28.796197 -27.841530 0.000016 0.000536 -52.507629 105.750070 66.174397 -28.328817 0.000023 0.000027 -0.000318 -0.000043 0.000003 -2.464395 -1.573836 2.682346 -43.641521 -157.612557 -0.491184 -3.215254 -1.872526 1.924618 148.835027 32.956295 21.030897 -2.654965 -1.527878 1.513040 147.283576 28.011306 -25.158276 -2.018838 -1.152014 1.108048 -0.000004 0.000000 0.000004 -9.108369 -0.517560 2.260152 104.118181 16.418600 -21.027292 -3.700087 0.000310 0.001529 101.066596 14.565899 -17.616975 -2.850094 0.000363 -0.000243 100.488960 11.955356 -14.347721 -2.772146 0.000000 -0.000013 0.000000 -0.000002 -0.000001 -9.532583 0.000270 0.000261 96.934728 15.802064 -17.969444 -3.700091 0.000323 0.003987 97.001254 12.580557 -14.096888 -2.950078 0.000335 -0.001776 99.792902 12.077800 -14.310924 -2.946613 0.000001 -0.000156 -0.000000 0.000003 0.000001 -9.103676 -0.042755 -1.864837 96.828348 17.522393 -19.654334 -3.379322 0.000318 -0.000777 98.364157 8.777955 -10.176030 -2.889764 0.000344 0.000700 105.248666 6.441131 -8.485035 -2.638817 -0.000029 0.000942 0.000000 0.000001 0.000000 -8.076753 -0.486399 -3.806011 91.786746 18.604225 -19.025676 -3.600037 0.000293 -0.003496 95.692712 7.206387 -7.572652 -2.100001 0.000330 -0.005457 99.310841 3.630368 -4.022752 -2.115777 -0.000070 -0.003679 -0.000000 -0.000001 -0.000005 4.570446 11.014691 -2.160851 -0.000018 0.000010 -0.000021 10.592398 -0.524475 -2.232347 73.275847 -12.363378 9.210619 27.841816 0.000051 -0.000213 102.832159 -74.602973 87.356125 28.328823 -0.000029 0.000018 0.000022 -0.000089 0.000000 2.466169 -1.576136 2.681880 -11.998977 159.029303 -63.682676 3.217829 -1.871751 1.916372 162.889124 -28.858587 12.906996 2.656109 -1.528679 1.514466 139.192575 -27.717686 54.785497 2.020895 -1.154067 1.115143 0.000003 0.000002 0.000001 9.109385 -0.517865 2.259741 86.936123 -19.347913 18.345482 3.700028 0.000172 -0.000466 84.014571 -13.192895 11.907183 2.850062 0.000183 0.000201 82.977168 -10.330671 9.140403 2.774886 -0.000030 -0.000025 -0.000000 -0.000000 0.000000 9.533469 0.000217 -0.000096 86.932838 -19.032616 18.048230 3.700062 0.000185 -0.000383 88.298862 -11.651625 11.310377 2.950052 0.000185 -0.000211 89.058420 -11.571270 11.386763 2.952864 -0.000015 0.000068 0.000000 -0.000002 0.000001 9.104601 -0.042853 -1.865206 86.285595 -19.071280 17.895220 3.150056 0.000202 -0.000092 91.016362 -12.047107 12.262944 2.950042 0.000183 -0.000080 92.877131 -10.356805 10.889075 2.644333 0.000047 0.000059 0.000005 0.000001 -0.000000 8.077857 -0.486725 -3.806392 78.684701 -20.563142 17.420445 3.600006 0.000187 0.014568 80.167604 -16.614666 14.458175 2.100032 0.000197 0.007537 83.477404 -12.019205 11.162570 2.125502 -0.000015 0.007510 0.000000 -0.000003 0.000001 -8.207786 -6.751667 -1.599560 -0.077001 -0.000003 0.000080 -0.000002 -44.370110 0.345938 0.153719 -0.000000 -0.000000 0.000000 -44.423679 -3.043532 -0.076700 0.000000 -0.000002 -0.000006 -8.728667 10.710559 -0.000009 -0.000000 -0.000000 -0.000001 -0.000679 9.278123 0.000000 -0.000000 -0.000000 8.207792 -6.751710 -1.599556 -0.074518 -0.000003 0.000081 -0.000002 -44.370014 0.346960 0.148822 0.000002 0.000000 -0.000001 -44.423664 -3.044403 -0.074314 0.000000 -0.000002 -0.000004 -8.728671 10.710558 0.000007 -0.000000 -0.000000 0.000000 -0.000680 9.278137 -0.000000 0.000000 -0.000001 
0.000006 104.270477 1.554256 0.000010 0.000003 -0.000113 -0.000005 10.181587 0.131522 0.000001 -0.000003 0.000084 -0.000000 9.893967 -1.470711 0.000001 0.000000 -0.000000 -0.000000 9.220802 -1.370642 0.000000 -0.000000 -0.000000 0.000001 16.740433 -2.049030 0.000000 -0.000000 -0.000000 0.000000 9.617859 1.685014 0.000000 0.000000 0.000000 0.000002 22.037384 7.501101 0.000000 -0.000000 0.000000 -4.569968 11.014880 -2.160881 0.000008 0.000001 -0.000038 -10.592843 -0.524806 -2.231822 75.902301 45.638446 -36.334878 -27.841528 0.000011 0.000546 -50.917742 103.651133 62.395137 -28.328844 -0.000005 0.000023 -0.000321 -0.000047 0.000010 -2.464407 -1.573855 2.682358 -39.597687 -155.148963 7.808992 -3.215262 -1.872533 1.924633 150.015092 32.557026 15.699304 -2.654968 -1.527864 1.513053 145.549501 28.069113 -26.625768 -2.018816 -1.152008 1.108060 -0.000005 -0.000001 0.000004 -9.108376 -0.517562 2.260182 106.513303 16.619752 -22.202011 -3.700077 0.000305 0.001545 102.577885 14.279868 -17.736618 -2.850106 0.000365 -0.000243 101.273073 11.632937 -14.155914 -2.772171 -0.000016 -0.000017 0.000001 0.000001 -0.000000 -9.532587 0.000268 0.000275 98.983791 16.618955 -19.569445 -3.700085 0.000330 0.003995 97.910379 12.525290 -14.258740 -2.950062 0.000316 -0.001792 99.336851 12.068734 -14.186416 -2.946631 0.000000 -0.000153 -0.000000 -0.000002 -0.000000 -9.103692 -0.042775 -1.864825 98.234458 17.667579 -20.303294 -3.379323 0.000304 -0.000778 99.627386 9.335678 -11.063289 -2.889732 0.000360 0.000693 105.302741 7.076436 -9.324246 -2.638810 -0.000018 0.000936 -0.000001 -0.000001 0.000001 -8.076754 -0.486397 -3.805988 91.877833 18.879645 -19.339131 -3.600036 0.000269 -0.003476 96.390362 8.772582 -9.406862 -2.100009 0.000322 -0.005442 99.763963 5.106571 -5.800385 -2.115781 -0.000026 -0.003679 -0.000001 -0.000002 -0.000007 4.570446 11.014691 -2.160851 -0.000018 0.000010 -0.000021 10.592447 -0.524472 -2.232396 72.812767 -28.846426 21.478419 27.841814 0.000044 -0.000179 103.461383 -76.051172 89.498407 28.328808 -0.000028 0.000022 0.000020 -0.000089 0.000001 2.466208 -1.576111 2.681856 -4.386647 160.931032 -77.299034 3.217843 -1.871792 1.916400 162.845971 -26.448697 23.214946 2.656099 -1.528659 1.514463 140.047879 -27.505056 52.918561 2.020890 -1.154064 1.115152 0.000002 0.000000 0.000006 9.109390 -0.517867 2.259741 88.575218 -19.854783 19.363952 3.700057 0.000154 -0.000472 85.325872 -12.758216 11.780556 2.850037 0.000201 0.000199 84.088378 -9.916968 8.946165 2.774887 -0.000032 -0.000023 0.000001 -0.000001 -0.000000 9.533476 0.000206 -0.000096 88.127253 -19.431965 18.809479 3.700040 0.000187 -0.000376 89.187312 -11.257805 11.097627 2.950047 0.000194 -0.000203 89.930929 -11.151527 11.141066 2.952875 -0.000012 0.000062 -0.000001 0.000000 -0.000001 9.104590 -0.042849 -1.865231 87.286778 -19.034018 18.170286 3.150046 0.000211 -0.000099 91.524719 -12.321182 12.652715 2.950012 0.000201 -0.000079 93.091291 -10.474046 11.053283 2.644319 0.000015 0.000055 0.000000 0.000000 -0.000000 8.077839 -0.486726 -3.806396 80.685701 -20.216600 17.740421 3.600012 0.000169 0.014555 81.014124 -17.371843 15.327858 2.100041 0.000189 0.007550 83.397641 -12.846456 11.889983 2.125489 -0.000016 0.007513 -0.000003 -0.000001 -0.000000 -8.207786 -6.751667 -1.599560 -0.077001 -0.000003 0.000080 -0.000002 -44.370110 0.345938 0.153719 -0.000000 -0.000000 0.000000 -44.423679 -3.043532 -0.076700 0.000000 -0.000002 -0.000006 -8.728667 10.710559 -0.000009 -0.000000 -0.000000 -0.000001 -0.000679 9.278123 0.000000 -0.000000 -0.000000 8.207792 -6.751710 -1.599556 -0.074518 -0.000003 0.000081 -0.000002 -44.370014 0.346960 0.148822 0.000002 0.000000 -0.000001 -44.423664 -3.044403 -0.074314 0.000000 -0.000002 -0.000004 -8.728671 10.710558 0.000007 -0.000000 -0.000000 0.000000 -0.000680 9.278137 -0.000000 0.000000 -0.000001 
